<svg width="306" height="63" viewBox="0 0 306 63" fill="none" xmlns="http://www.w3.org/2000/svg">
<path d="M31.5833 1.33887V2.31803C30.9583 2.44303 30.2917 2.81803 29.5833 3.44303C28.8854 4.06803 28.2604 5.12012 27.7083 6.58887L16.1667 36.3597C16.0937 36.3597 16.026 36.3597 15.9583 36.3597C15.8854 36.3597 15.8229 36.3597 15.7708 36.3597C15.6979 36.3597 15.6302 36.3597 15.5625 36.3597C15.5052 36.3597 15.4427 36.3597 15.375 36.3597L3.39583 5.46387C2.89583 4.21387 2.33333 3.39095 1.70833 2.9847C1.09375 2.56803 0.526041 2.34928 0 2.31803V1.33887C0.651041 1.37012 1.45833 1.40137 2.41667 1.44303C3.38542 1.47428 4.33333 1.4847 5.25 1.4847C6.52604 1.4847 7.71875 1.47428 8.83333 1.44303C9.94271 1.40137 10.8437 1.37012 11.5417 1.33887V2.31803C10.4271 2.34928 9.58333 2.47949 9 2.71387C8.42708 2.93783 8.11458 3.33887 8.0625 3.9222C8.02083 4.49512 8.21354 5.33366 8.64583 6.44303L17.7708 30.6514L17 31.4847L25.5417 9.2972C26.2344 7.52116 26.5625 6.13053 26.5208 5.13053C26.4896 4.13053 26.1146 3.4222 25.3958 3.00553C24.6719 2.57845 23.625 2.34928 22.25 2.31803V1.33887C23.1927 1.37012 24.1563 1.40137 25.1458 1.44303C26.1302 1.47428 27.0469 1.4847 27.8958 1.4847C28.7552 1.4847 29.4635 1.47428 30.0208 1.44303C30.5729 1.40137 31.0938 1.37012 31.5833 1.33887Z" fill="#F3F3F4"/>
<path d="M57.8138 1.33887C57.6732 2.47949 57.5742 3.58887 57.5221 4.6722C57.4805 5.75553 57.4596 6.57845 57.4596 7.13053C57.4596 7.71387 57.4701 8.27637 57.5013 8.81803C57.543 9.3597 57.5742 9.81283 57.6055 10.1722H56.4805C56.2826 8.24512 56.0065 6.71387 55.6471 5.58887C55.2826 4.45345 54.668 3.64616 53.793 3.1722C52.9284 2.70345 51.6315 2.46387 49.8971 2.46387H45.8138C44.6992 2.46387 43.8607 2.55762 43.293 2.7347C42.7201 2.91699 42.3346 3.29199 42.1263 3.8597C41.9284 4.43262 41.8346 5.31803 41.8346 6.52637V30.9014C41.8346 32.0837 41.9284 32.9743 42.1263 33.568C42.3346 34.1514 42.7201 34.5368 43.293 34.7139C43.8607 34.8962 44.6992 34.9847 45.8138 34.9847H49.3971C51.4648 34.9847 53.0273 34.7087 54.0846 34.1514C55.1523 33.5993 55.9232 32.6878 56.3971 31.4222C56.8815 30.1618 57.2357 28.443 57.4596 26.2764H58.5846C58.4857 27.167 58.4388 28.3493 58.4388 29.818C58.4388 30.443 58.4596 31.3389 58.5013 32.5055C58.5534 33.6618 58.6523 34.8597 58.793 36.1097C57.1263 36.042 55.2409 36.0003 53.1471 35.9847C51.0482 35.9743 49.1784 35.9639 47.543 35.9639C46.819 35.9639 45.8867 35.9639 44.7513 35.9639C43.6263 35.9639 42.4076 35.9743 41.1055 35.9847C39.7982 36.0003 38.4701 36.0212 37.1263 36.0472C35.7773 36.0628 34.5013 36.0837 33.293 36.1097V35.1305C34.4023 35.0628 35.2409 34.9326 35.8138 34.7347C36.3971 34.542 36.7826 34.1514 36.9805 33.568C37.1732 32.9743 37.2721 32.0837 37.2721 30.9014V6.52637C37.2721 5.31803 37.1732 4.43262 36.9805 3.8597C36.7826 3.29199 36.3971 2.90137 35.8138 2.69303C35.2409 2.47428 34.4023 2.34928 33.293 2.31803V1.33887C34.5013 1.37012 35.7773 1.39095 37.1263 1.40137C38.4701 1.41699 39.7982 1.43783 41.1055 1.46387C42.4076 1.47949 43.6263 1.4847 44.7513 1.4847C45.8867 1.4847 46.819 1.4847 47.543 1.4847C49.043 1.4847 50.7513 1.47949 52.668 1.46387C54.5846 1.43783 56.2982 1.39616 57.8138 1.33887ZM49.3555 18.1305C49.3555 18.1305 49.3555 18.2972 49.3555 18.6305C49.3555 18.9535 49.3555 19.1097 49.3555 19.1097H40.3763C40.3763 19.1097 40.3763 18.9535 40.3763 18.6305C40.3763 18.2972 40.3763 18.1305 40.3763 18.1305H49.3555ZM50.7721 11.6514C50.6471 13.516 50.5898 14.9378 50.6055 15.9222C50.6159 16.9118 50.6263 17.8128 50.6263 18.6305C50.6263 19.4535 50.6367 20.3545 50.668 21.3389C50.7096 22.3128 50.7982 23.7295 50.9388 25.5889H49.793C49.668 24.5472 49.5117 23.5264 49.3346 22.5264C49.1523 21.5264 48.7565 20.7087 48.1471 20.068C47.5482 19.4326 46.5273 19.1097 45.0846 19.1097V18.1305C46.168 18.1305 46.9909 17.9118 47.5638 17.4639C48.1315 17.0212 48.5482 16.4587 48.8138 15.7764C49.0742 15.0837 49.2565 14.3701 49.3555 13.6305C49.4492 12.8962 49.5482 12.2347 49.6471 11.6514H50.7721Z" fill="#F3F3F4"/>
<path d="M63.1992 1.33887C63.8919 1.37012 64.793 1.40137 65.9076 1.44303C67.0169 1.47428 68.1159 1.4847 69.1992 1.4847C70.7409 1.4847 72.2096 1.47428 73.6159 1.44303C75.0169 1.40137 76.0169 1.38053 76.6159 1.38053C79.2669 1.38053 81.4701 1.75553 83.2201 2.50553C84.9701 3.25553 86.2721 4.28678 87.1367 5.58887C88.0117 6.88053 88.4492 8.32845 88.4492 9.9222C88.4492 10.9118 88.2461 11.9587 87.8451 13.068C87.4544 14.1826 86.7721 15.2295 85.8034 16.2139C84.8451 17.2035 83.5326 18.016 81.8659 18.6514C80.1992 19.292 78.0846 19.6097 75.5326 19.6097H70.8242V18.6305H75.0326C77.3659 18.6305 79.1419 18.266 80.3659 17.5264C81.6003 16.7764 82.4336 15.792 82.8659 14.568C83.3086 13.3493 83.5326 11.9795 83.5326 10.4639C83.5326 7.88053 82.9128 5.88053 81.6784 4.46387C80.4544 3.03678 78.3555 2.31803 75.3867 2.31803C73.8711 2.31803 72.8867 2.59928 72.4284 3.15137C71.9701 3.70866 71.7409 4.83366 71.7409 6.52637V30.9014C71.7409 32.0837 71.8346 32.9743 72.0326 33.568C72.2409 34.1514 72.6263 34.542 73.1992 34.7347C73.7669 34.9326 74.6055 35.0628 75.7201 35.1305V36.1097C74.9701 36.042 74.0221 36.0003 72.8867 35.9847C71.7617 35.9743 70.6263 35.9639 69.4909 35.9639C68.2096 35.9639 67.0169 35.9743 65.9076 35.9847C64.793 36.0003 63.8919 36.042 63.1992 36.1097V35.1305C64.3086 35.0628 65.1471 34.9326 65.7201 34.7347C66.3034 34.542 66.6888 34.1514 66.8867 33.568C67.0794 32.9743 67.1784 32.0837 67.1784 30.9014V6.52637C67.1784 5.31803 67.0794 4.43262 66.8867 3.8597C66.6888 3.29199 66.3034 2.90137 65.7201 2.69303C65.1471 2.47428 64.3086 2.34928 63.1992 2.31803V1.33887ZM71.0117 18.7764C72.7721 18.8337 74.1628 18.9014 75.1784 18.9847C76.1888 19.068 77.0169 19.1462 77.6576 19.2139C78.293 19.2868 78.9128 19.3701 79.5117 19.4639C81.7044 19.8285 83.2826 20.4951 84.2409 21.4639C85.2096 22.4222 85.9284 23.917 86.3867 25.943L87.6159 30.943C87.9492 32.391 88.2826 33.4326 88.6159 34.068C88.9596 34.7087 89.4961 35.016 90.2201 34.9847C90.7721 34.943 91.2409 34.766 91.6159 34.443C91.9909 34.1097 92.3919 33.667 92.8242 33.1097L93.5534 33.6514C92.8711 34.667 92.1628 35.443 91.4284 35.9847C90.6888 36.5264 89.6471 36.7972 88.3034 36.7972C87.0951 36.7972 86.0326 36.4326 85.1159 35.7139C84.1992 34.9951 83.5117 33.5837 83.0534 31.4847L81.9701 26.5889C81.6784 25.1722 81.3346 23.9535 80.9492 22.9222C80.5742 21.8962 80.0534 21.0889 79.3867 20.5055C78.7201 19.9118 77.7253 19.6097 76.4076 19.6097H71.1159L71.0117 18.7764Z" fill="#F3F3F4"/>
<path d="M105.544 0.796875C107.179 0.796875 108.424 0.984375 109.273 1.35938C110.117 1.73438 110.867 2.15104 111.523 2.60938C111.924 2.83333 112.242 3.00521 112.481 3.13021C112.731 3.24479 112.965 3.29688 113.189 3.29688C113.523 3.29688 113.757 3.11979 113.898 2.75521C114.049 2.39583 114.174 1.85417 114.273 1.13021H115.419C115.377 1.6875 115.325 2.35417 115.273 3.13021C115.231 3.89583 115.2 4.91146 115.189 6.17188C115.174 7.4375 115.169 9.09896 115.169 11.151H114.044C113.945 9.58333 113.596 8.07812 113.002 6.63021C112.419 5.1875 111.554 4.00521 110.419 3.08854C109.294 2.17188 107.814 1.71354 105.981 1.71354C104.242 1.71354 102.804 2.24479 101.669 3.29688C100.544 4.33854 99.9811 5.71354 99.9811 7.42188C99.9811 8.89583 100.356 10.1302 101.106 11.1302C101.867 12.1302 102.877 13.0365 104.127 13.8385C105.387 14.6302 106.757 15.4844 108.231 16.401C109.939 17.4583 111.45 18.5 112.773 19.526C114.106 20.5573 115.153 21.6927 115.919 22.9427C116.695 24.1927 117.085 25.7031 117.085 27.4635C117.085 29.5625 116.606 31.2969 115.648 32.6719C114.7 34.0469 113.445 35.0833 111.877 35.776C110.304 36.4531 108.57 36.7969 106.669 36.7969C104.929 36.7969 103.554 36.5938 102.544 36.1927C101.528 35.8073 100.658 35.401 99.9395 34.9844C99.2155 34.526 98.6582 34.2969 98.2728 34.2969C97.9395 34.2969 97.6947 34.4792 97.5436 34.8385C97.403 35.2031 97.2832 35.7448 97.1895 36.4635H96.0645C96.1165 35.7708 96.153 34.9583 96.1686 34.026C96.1947 33.099 96.2155 31.8802 96.2311 30.3802C96.2415 28.8698 96.252 26.9635 96.252 24.6719H97.377C97.5124 26.6302 97.8822 28.4635 98.4811 30.1719C99.0905 31.8698 100.023 33.2344 101.273 34.276C102.533 35.3073 104.215 35.8177 106.314 35.8177C107.398 35.8177 108.419 35.599 109.377 35.151C110.346 34.7083 111.148 34.0052 111.773 33.0469C112.398 32.0781 112.71 30.8177 112.71 29.276C112.71 27.9427 112.387 26.776 111.752 25.776C111.111 24.776 110.215 23.849 109.064 22.9844C107.924 22.1094 106.585 21.2135 105.044 20.2969C103.502 19.3385 102.054 18.375 100.71 17.401C99.377 16.4167 98.304 15.276 97.502 13.9844C96.6947 12.6927 96.2936 11.1302 96.2936 9.29688C96.2936 7.35417 96.7207 5.75521 97.5853 4.50521C98.4603 3.24479 99.5957 2.3125 101.002 1.71354C102.419 1.10417 103.929 0.796875 105.544 0.796875Z" fill="#F3F3F4"/>
<path d="M135.354 1.08887L147.333 31.9847C147.818 33.2347 148.375 34.0628 149 34.4639C149.625 34.8701 150.198 35.0889 150.729 35.1305V36.1097C150.073 36.042 149.271 36.0003 148.313 35.9847C147.365 35.9743 146.417 35.9639 145.458 35.9639C144.177 35.9639 142.984 35.9743 141.875 35.9847C140.76 36.0003 139.865 36.042 139.188 36.1097V35.1305C140.854 35.0628 141.917 34.7764 142.375 34.2764C142.833 33.766 142.734 32.6722 142.083 31.0055L132.938 6.58887L133.729 5.94303L125.188 28.1514C124.656 29.4587 124.344 30.5628 124.25 31.4639C124.151 32.3701 124.24 33.0837 124.521 33.6097C124.797 34.1253 125.271 34.5003 125.938 34.7347C126.604 34.9587 127.448 35.0889 128.479 35.1305V36.1097C127.547 36.042 126.583 36.0003 125.583 35.9847C124.594 35.9743 123.672 35.9639 122.813 35.9639C121.99 35.9639 121.297 35.9743 120.729 35.9847C120.156 36.0003 119.625 36.042 119.125 36.1097V35.1305C119.792 34.9639 120.464 34.5837 121.146 33.9847C121.839 33.3753 122.464 32.3337 123.021 30.8597L134.563 1.08887C134.688 1.08887 134.813 1.08887 134.938 1.08887C135.073 1.08887 135.214 1.08887 135.354 1.08887ZM141.333 21.9639V22.943H126.708L127.188 21.9639H141.333Z" fill="#F3F3F4"/>
<path d="M193.939 1.33887V2.31803C193.314 2.44303 192.647 2.81803 191.939 3.44303C191.241 4.06803 190.616 5.12012 190.064 6.58887L178.522 36.3597C178.449 36.3597 178.382 36.3597 178.314 36.3597C178.241 36.3597 178.178 36.3597 178.126 36.3597C178.053 36.3597 177.986 36.3597 177.918 36.3597C177.861 36.3597 177.798 36.3597 177.73 36.3597L165.751 5.46387C165.251 4.21387 164.689 3.39095 164.064 2.9847C163.449 2.56803 162.882 2.34928 162.355 2.31803V1.33887C163.007 1.37012 163.814 1.40137 164.772 1.44303C165.741 1.47428 166.689 1.4847 167.605 1.4847C168.882 1.4847 170.074 1.47428 171.189 1.44303C172.298 1.40137 173.199 1.37012 173.897 1.33887V2.31803C172.783 2.34928 171.939 2.47949 171.355 2.71387C170.783 2.93783 170.47 3.33887 170.418 3.9222C170.376 4.49512 170.569 5.33366 171.001 6.44303L180.126 30.6514L179.355 31.4847L187.897 9.2972C188.59 7.52116 188.918 6.13053 188.876 5.13053C188.845 4.13053 188.47 3.4222 187.751 3.00553C187.027 2.57845 185.98 2.34928 184.605 2.31803V1.33887C185.548 1.37012 186.512 1.40137 187.501 1.44303C188.486 1.47428 189.402 1.4847 190.251 1.4847C191.111 1.4847 191.819 1.47428 192.376 1.44303C192.928 1.40137 193.449 1.37012 193.939 1.33887Z" fill="#F3F3F4"/>
<path d="M208.169 1.33887V2.31803C207.055 2.34928 206.216 2.47428 205.648 2.69303C205.076 2.90137 204.69 3.29199 204.482 3.8597C204.284 4.43262 204.19 5.31803 204.19 6.52637V30.9014C204.19 32.0837 204.284 32.9743 204.482 33.568C204.69 34.1514 205.076 34.542 205.648 34.7347C206.216 34.9326 207.055 35.0628 208.169 35.1305V36.1097C207.419 36.042 206.471 36.0003 205.336 35.9847C204.211 35.9743 203.076 35.9639 201.94 35.9639C200.659 35.9639 199.466 35.9743 198.357 35.9847C197.242 36.0003 196.341 36.042 195.648 36.1097V35.1305C196.758 35.0628 197.596 34.9326 198.169 34.7347C198.753 34.542 199.138 34.1514 199.336 33.568C199.529 32.9743 199.628 32.0837 199.628 30.9014V6.52637C199.628 5.31803 199.529 4.43262 199.336 3.8597C199.138 3.29199 198.753 2.90137 198.169 2.69303C197.596 2.47428 196.758 2.34928 195.648 2.31803V1.33887C196.341 1.37012 197.242 1.40137 198.357 1.44303C199.466 1.47428 200.659 1.4847 201.94 1.4847C203.076 1.4847 204.211 1.47428 205.336 1.44303C206.471 1.40137 207.419 1.37012 208.169 1.33887Z" fill="#F3F3F4"/>
<path d="M224.818 1.33887V2.31803C223.703 2.34928 222.865 2.47428 222.297 2.69303C221.724 2.90137 221.339 3.29199 221.13 3.8597C220.932 4.43262 220.839 5.31803 220.839 6.52637V30.9014C220.839 32.0837 220.932 32.9743 221.13 33.568C221.339 34.1514 221.724 34.5368 222.297 34.7139C222.865 34.8962 223.703 34.9847 224.818 34.9847H228.401C229.943 34.9847 231.193 34.8285 232.151 34.5055C233.12 34.1722 233.891 33.6514 234.464 32.943C235.047 32.2347 235.484 31.292 235.776 30.1097C236.068 28.9326 236.297 27.4951 236.464 25.7972H237.589C237.49 26.8128 237.443 28.1514 237.443 29.818C237.443 30.443 237.464 31.3389 237.505 32.5055C237.557 33.6618 237.656 34.8597 237.797 36.1097C236.13 36.042 234.245 36.0003 232.151 35.9847C230.052 35.9743 228.182 35.9639 226.547 35.9639C225.823 35.9639 224.891 35.9639 223.755 35.9639C222.63 35.9639 221.411 35.9743 220.109 35.9847C218.802 36.0003 217.474 36.0212 216.13 36.0472C214.781 36.0628 213.505 36.0837 212.297 36.1097V35.1305C213.406 35.0628 214.245 34.9326 214.818 34.7347C215.401 34.542 215.786 34.1514 215.984 33.568C216.177 32.9743 216.276 32.0837 216.276 30.9014V6.52637C216.276 5.31803 216.177 4.43262 215.984 3.8597C215.786 3.29199 215.401 2.90137 214.818 2.69303C214.245 2.47428 213.406 2.34928 212.297 2.31803V1.33887C212.99 1.37012 213.891 1.40137 215.005 1.44303C216.115 1.47428 217.307 1.4847 218.589 1.4847C219.724 1.4847 220.859 1.47428 221.984 1.44303C223.12 1.40137 224.068 1.37012 224.818 1.33887Z" fill="#F3F3F4"/>
<path d="M253.693 1.33887V2.31803C252.578 2.34928 251.74 2.47428 251.172 2.69303C250.599 2.90137 250.214 3.29199 250.005 3.8597C249.807 4.43262 249.714 5.31803 249.714 6.52637V30.9014C249.714 32.0837 249.807 32.9743 250.005 33.568C250.214 34.1514 250.599 34.5368 251.172 34.7139C251.74 34.8962 252.578 34.9847 253.693 34.9847H257.276C258.818 34.9847 260.068 34.8285 261.026 34.5055C261.995 34.1722 262.766 33.6514 263.339 32.943C263.922 32.2347 264.359 31.292 264.651 30.1097C264.943 28.9326 265.172 27.4951 265.339 25.7972H266.464C266.365 26.8128 266.318 28.1514 266.318 29.818C266.318 30.443 266.339 31.3389 266.38 32.5055C266.432 33.6618 266.531 34.8597 266.672 36.1097C265.005 36.042 263.12 36.0003 261.026 35.9847C258.927 35.9743 257.057 35.9639 255.422 35.9639C254.698 35.9639 253.766 35.9639 252.63 35.9639C251.505 35.9639 250.286 35.9743 248.984 35.9847C247.677 36.0003 246.349 36.0212 245.005 36.0472C243.656 36.0628 242.38 36.0837 241.172 36.1097V35.1305C242.281 35.0628 243.12 34.9326 243.693 34.7347C244.276 34.542 244.661 34.1514 244.859 33.568C245.052 32.9743 245.151 32.0837 245.151 30.9014V6.52637C245.151 5.31803 245.052 4.43262 244.859 3.8597C244.661 3.29199 244.276 2.90137 243.693 2.69303C243.12 2.47428 242.281 2.34928 241.172 2.31803V1.33887C241.865 1.37012 242.766 1.40137 243.88 1.44303C244.99 1.47428 246.182 1.4847 247.464 1.4847C248.599 1.4847 249.734 1.47428 250.859 1.44303C251.995 1.40137 252.943 1.37012 253.693 1.33887Z" fill="#F3F3F4"/>
<path d="M283.862 1.08887L295.841 31.9847C296.326 33.2347 296.883 34.0628 297.508 34.4639C298.133 34.8701 298.706 35.0889 299.237 35.1305V36.1097C298.581 36.042 297.779 36.0003 296.82 35.9847C295.872 35.9743 294.924 35.9639 293.966 35.9639C292.685 35.9639 291.492 35.9743 290.383 35.9847C289.268 36.0003 288.372 36.042 287.695 36.1097V35.1305C289.362 35.0628 290.424 34.7764 290.883 34.2764C291.341 33.766 291.242 32.6722 290.591 31.0055L281.445 6.58887L282.237 5.94303L273.695 28.1514C273.164 29.4587 272.852 30.5628 272.758 31.4639C272.659 32.3701 272.747 33.0837 273.029 33.6097C273.305 34.1253 273.779 34.5003 274.445 34.7347C275.112 34.9587 275.956 35.0889 276.987 35.1305V36.1097C276.055 36.042 275.091 36.0003 274.091 35.9847C273.102 35.9743 272.18 35.9639 271.32 35.9639C270.497 35.9639 269.805 35.9743 269.237 35.9847C268.664 36.0003 268.133 36.042 267.633 36.1097V35.1305C268.299 34.9639 268.971 34.5837 269.654 33.9847C270.346 33.3753 270.971 32.3337 271.529 30.8597L283.07 1.08887C283.195 1.08887 283.32 1.08887 283.445 1.08887C283.581 1.08887 283.721 1.08887 283.862 1.08887ZM289.841 21.9639V22.943H275.216L275.695 21.9639H289.841Z" fill="#F3F3F4"/>
<mask id="mask0_4862_158" style="mask-type:luminance" maskUnits="userSpaceOnUse" x="297" y="0" width="9" height="8">
<path d="M297.162 0H305.162V8H297.162V0Z" fill="#F3F3F4"/>
</mask>
<g mask="url(#mask0_4862_158)">
<path d="M301.162 0.307292C299.126 0.307292 297.469 1.96354 297.469 4C297.469 6.03646 299.126 7.69271 301.162 7.69271C303.204 7.69271 304.86 6.03646 304.86 4C304.86 1.96354 303.204 0.307292 301.162 0.307292ZM301.162 8C300.626 8 300.1 7.89583 299.61 7.6875C299.131 7.48437 298.704 7.19792 298.334 6.82813C297.969 6.46354 297.683 6.03646 297.48 5.55729C297.271 5.0625 297.162 4.54167 297.162 4C297.162 3.46354 297.271 2.9375 297.48 2.44271C297.683 1.96875 297.969 1.54167 298.334 1.17188C298.704 0.807292 299.131 0.515626 299.61 0.317708C300.1 0.109375 300.626 0 301.162 0C301.704 0 302.23 0.109375 302.719 0.317708C303.199 0.515626 303.626 0.807292 303.995 1.17188C304.36 1.54167 304.646 1.96875 304.85 2.44271C305.058 2.9375 305.162 3.46354 305.162 4C305.162 4.54167 305.058 5.0625 304.85 5.55729C304.646 6.03646 304.36 6.46354 303.995 6.82813C303.626 7.19792 303.199 7.48437 302.719 7.6875C302.23 7.89583 301.704 8 301.162 8Z" fill="black"/>
</g>
<path d="M299.473 5.24447V3.08822H298.65V2.75488H300.702V3.08822H299.88V5.24447H299.473Z" fill="black"/>
<path d="M303.271 5.24447V3.98405C303.271 3.87467 303.271 3.75488 303.276 3.62467L303.281 3.13509C303.255 3.21322 303.078 3.74968 303.052 3.82259L302.531 5.24447H302.271L301.75 3.82259C301.724 3.74968 301.542 3.24967 301.516 3.17155L301.526 3.62988C301.526 3.74967 301.531 3.86947 301.531 3.98405V5.24447H301.125V2.75488H301.724L302.156 3.94759C302.214 4.10905 302.271 4.28092 302.323 4.46322L302.396 4.71322L302.474 4.46322C302.521 4.30176 302.578 4.12988 302.641 3.95801L303.073 2.75488H303.677V5.24447H303.271Z" fill="black"/>
<path d="M248.946 52.4964C249.363 52.4964 249.748 52.6006 250.113 52.8089C250.472 53.0173 250.759 53.3245 250.967 53.7256C251.186 54.1318 251.3 54.6214 251.3 55.2048C251.3 55.9131 251.144 56.5277 250.842 57.0381C250.535 57.5381 250.134 57.9131 249.634 58.1631C249.144 58.4131 248.623 58.5381 248.071 58.5381C247.321 58.5381 246.654 58.3245 246.071 57.8923L244.967 58.4339H244.925C244.894 58.4339 244.873 58.4131 244.863 58.3714C244.847 58.3298 244.852 58.2985 244.884 58.2673C245.201 58.0589 245.425 57.8662 245.55 57.6839C245.675 57.4912 245.738 57.2048 245.738 56.8298V49.6006C245.738 49.2412 245.701 48.986 245.634 48.8298C245.561 48.6787 245.436 48.6006 245.259 48.6006C245.118 48.6006 244.894 48.6631 244.592 48.7881H244.571C244.54 48.7881 244.519 48.7673 244.509 48.7256C244.493 48.6735 244.498 48.637 244.529 48.6214L246.363 47.7256H246.425C246.451 47.7256 246.477 47.7412 246.509 47.7673C246.55 47.7829 246.571 47.8037 246.571 47.8298V53.7673C246.93 53.3818 247.3 53.0745 247.675 52.8506C248.05 52.6162 248.472 52.4964 248.946 52.4964ZM248.529 58.2673C249.097 58.2673 249.54 58.0485 249.863 57.6006C250.18 57.1579 250.342 56.5277 250.342 55.7048C250.342 54.8298 250.165 54.1579 249.821 53.6839C249.472 53.2152 249.014 52.9756 248.446 52.9756C248.113 52.9756 247.79 53.0693 247.488 53.2464C247.196 53.4287 246.889 53.6839 246.571 54.0173V56.4131C246.571 56.8454 246.675 57.1995 246.884 57.4756C247.092 57.7412 247.347 57.9443 247.654 58.0798C247.956 58.2048 248.248 58.2673 248.529 58.2673Z" fill="#F3F3F4"/>
<path d="M258.15 52.6846C258.191 52.6846 258.212 52.721 258.212 52.7887C258.212 52.846 258.191 52.8721 258.15 52.8721C257.91 52.8721 257.702 52.9658 257.525 53.1429C257.342 53.3096 257.176 53.596 257.025 53.9971L255.233 58.7679C254.868 59.7106 254.53 60.445 254.212 60.9762C253.905 61.5179 253.577 61.8981 253.233 62.1221C252.9 62.3564 252.509 62.4762 252.066 62.4762C251.858 62.4762 251.686 62.4242 251.546 62.3304C251.395 62.2314 251.316 62.0856 251.316 61.8929C251.316 61.7679 251.368 61.6637 251.462 61.5804C251.546 61.4971 251.65 61.4554 251.775 61.4554C251.9 61.4554 252.004 61.4658 252.087 61.4971C252.181 61.5231 252.28 61.57 252.379 61.6429C252.389 61.6533 252.447 61.6846 252.546 61.7262C252.639 61.7783 252.759 61.8096 252.9 61.8096C253.134 61.8096 253.358 61.7054 253.566 61.4971C253.775 61.2992 253.993 60.9606 254.233 60.4762C254.467 59.9867 254.754 59.32 255.087 58.4762L252.858 53.9137C252.618 53.4867 252.441 53.2054 252.316 53.0804C252.202 52.945 252.056 52.8721 251.879 52.8721C251.863 52.8721 251.858 52.846 251.858 52.7887C251.858 52.721 251.863 52.6846 251.879 52.6846L252.379 52.7054C252.488 52.721 252.65 52.7262 252.858 52.7262L253.796 52.7054C253.931 52.695 254.129 52.6846 254.379 52.6846C254.389 52.6846 254.4 52.721 254.4 52.7887C254.4 52.846 254.389 52.8721 254.379 52.8721C253.806 52.8721 253.525 52.9867 253.525 53.2054C253.525 53.2627 253.546 53.3408 253.587 53.4346L255.525 57.4137L256.712 54.0387C256.78 53.8044 256.816 53.6169 256.816 53.4762C256.816 53.2575 256.723 53.1012 256.546 53.0179C256.379 52.9242 256.092 52.8721 255.691 52.8721C255.676 52.8721 255.671 52.846 255.671 52.7887C255.671 52.721 255.676 52.6846 255.691 52.6846C255.952 52.6846 256.155 52.695 256.296 52.7054L257.171 52.7262L257.712 52.7054C257.806 52.695 257.952 52.6846 258.15 52.6846Z" fill="#F3F3F4"/>
<path d="M271.893 58.1842C271.934 58.1842 271.955 58.2155 271.955 58.2676C271.955 58.3249 271.934 58.3509 271.893 58.3509C271.71 58.3509 271.424 58.3457 271.038 58.3301C270.632 58.304 270.351 58.2884 270.184 58.2884C269.96 58.2884 269.684 58.304 269.351 58.3301C269.044 58.3457 268.809 58.3509 268.643 58.3509C268.601 58.3509 268.58 58.3249 268.58 58.2676C268.58 58.2155 268.601 58.1842 268.643 58.1842C269.002 58.1842 269.268 58.153 269.434 58.0801C269.601 58.0124 269.684 57.8926 269.684 57.7259C269.684 57.5905 269.622 57.3717 269.497 57.0801L268.184 54.3092H264.684L263.768 56.4967C263.627 56.8301 263.559 57.0957 263.559 57.2884C263.559 57.5957 263.674 57.8249 263.913 57.9759C264.163 58.1165 264.523 58.1842 264.997 58.1842C265.049 58.1842 265.08 58.2155 265.08 58.2676C265.08 58.3249 265.049 58.3509 264.997 58.3509C264.83 58.3509 264.58 58.3457 264.247 58.3301C263.872 58.304 263.544 58.2884 263.268 58.2884C263.018 58.2884 262.726 58.304 262.393 58.3301C262.101 58.3457 261.856 58.3509 261.663 58.3509C261.611 58.3509 261.58 58.3249 261.58 58.2676C261.58 58.2155 261.611 58.1842 261.663 58.1842C261.924 58.1842 262.153 58.1374 262.351 58.0384C262.544 57.929 262.726 57.7415 262.893 57.4759C263.07 57.2155 263.257 56.8405 263.455 56.3509L266.559 49.0592C266.57 49.0332 266.601 49.0176 266.643 49.0176C266.695 49.0176 266.731 49.0332 266.747 49.0592L270.205 56.3509C270.538 57.0749 270.82 57.5592 271.059 57.8092C271.294 58.0592 271.57 58.1842 271.893 58.1842ZM264.809 54.0176H268.059L266.33 50.3926L264.809 54.0176Z" fill="#F3F3F4"/>
<path d="M281.952 58.1842C281.962 58.1842 281.973 58.2155 281.973 58.2676C281.973 58.3249 281.962 58.3509 281.952 58.3509H280.056C279.806 58.3509 279.337 57.9499 278.66 57.1426C277.993 56.3249 277.191 55.2051 276.264 53.7884C275.999 53.8457 275.728 53.8717 275.452 53.8717C275.395 53.8717 275.171 53.8613 274.785 53.8301V57.1634C274.785 57.4707 274.811 57.6947 274.868 57.8301C274.936 57.9707 275.056 58.0697 275.223 58.1217C275.389 58.1634 275.66 58.1842 276.035 58.1842C276.061 58.1842 276.077 58.2155 276.077 58.2676C276.077 58.3249 276.061 58.3509 276.035 58.3509C275.728 58.3509 275.493 58.3457 275.327 58.3301H273.306C273.139 58.3457 272.889 58.3509 272.556 58.3509C272.54 58.3509 272.535 58.3249 272.535 58.2676C272.535 58.2155 272.54 58.1842 272.556 58.1842C272.931 58.1842 273.202 58.1634 273.368 58.1217C273.546 58.0697 273.671 57.9707 273.743 57.8301C273.811 57.679 273.848 57.4551 273.848 57.1634V50.3717C273.848 50.0801 273.811 49.8665 273.743 49.7259C273.686 49.5905 273.566 49.4915 273.389 49.4342C273.223 49.3822 272.957 49.3509 272.598 49.3509C272.566 49.3509 272.556 49.3249 272.556 49.2676C272.556 49.2155 272.566 49.1842 272.598 49.1842L273.306 49.2051C273.723 49.2207 274.056 49.2259 274.306 49.2259C274.525 49.2259 274.728 49.2259 274.91 49.2259C275.087 49.2155 275.243 49.1999 275.368 49.1842C275.728 49.1582 276.061 49.1426 276.368 49.1426C277.129 49.1426 277.723 49.3249 278.139 49.6842C278.566 50.0332 278.785 50.4967 278.785 51.0801C278.785 51.6113 278.624 52.0905 278.306 52.5176C277.999 52.9342 277.598 53.2676 277.098 53.5176C277.915 54.6999 278.603 55.6217 279.16 56.2884C279.728 56.9551 280.228 57.4447 280.66 57.7467C281.103 58.0384 281.535 58.1842 281.952 58.1842ZM274.785 53.4759C275.035 53.5176 275.327 53.5384 275.66 53.5384C276.421 53.5384 276.962 53.3717 277.285 53.0384C277.618 52.7051 277.785 52.1947 277.785 51.4967C277.785 50.7363 277.608 50.1842 277.264 49.8509C276.931 49.5176 276.441 49.3509 275.806 49.3509C275.415 49.3509 275.145 49.4238 274.993 49.5592C274.853 49.6999 274.785 49.9759 274.785 50.3926V53.4759Z" fill="#F3F3F4"/>
<path d="M290.795 49.1846C290.821 49.1846 290.837 49.2158 290.837 49.2679C290.837 49.3252 290.821 49.3512 290.795 49.3512C290.446 49.3512 290.092 49.4867 289.732 49.7471C289.368 50.0127 289.045 50.3669 288.753 50.8096L286.795 53.8304V57.1637C286.795 57.471 286.821 57.695 286.878 57.8304C286.946 57.971 287.066 58.07 287.232 58.1221C287.399 58.1637 287.67 58.1846 288.045 58.1846C288.071 58.1846 288.087 58.2158 288.087 58.2679C288.087 58.3252 288.071 58.3512 288.045 58.3512C287.738 58.3512 287.503 58.346 287.337 58.3304H285.295C285.128 58.346 284.889 58.3512 284.587 58.3512C284.555 58.3512 284.545 58.3252 284.545 58.2679C284.545 58.2158 284.555 58.1846 284.587 58.1846C284.962 58.1846 285.232 58.1637 285.399 58.1221C285.566 58.07 285.675 57.971 285.732 57.8304C285.8 57.6794 285.837 57.4554 285.837 57.1637V54.0596L283.399 50.4971C283.133 50.07 282.878 49.7679 282.628 49.6012C282.389 49.4346 282.107 49.3512 281.774 49.3512C281.748 49.3512 281.732 49.3252 281.732 49.2679C281.732 49.2158 281.748 49.1846 281.774 49.1846C281.899 49.1846 282.076 49.195 282.316 49.2054L282.816 49.2262C283.149 49.2262 283.571 49.221 284.087 49.2054L284.878 49.1846C284.889 49.1846 284.899 49.2158 284.899 49.2679C284.899 49.3252 284.889 49.3512 284.878 49.3512C284.363 49.3512 284.107 49.4554 284.107 49.6637C284.107 49.7783 284.154 49.9033 284.253 50.0387L286.628 53.4971L288.42 50.7471C288.628 50.4137 288.732 50.1325 288.732 49.8929C288.732 49.5335 288.467 49.3512 287.941 49.3512C287.925 49.3512 287.92 49.3252 287.92 49.2679C287.92 49.2158 287.925 49.1846 287.941 49.1846L288.628 49.2054C289.003 49.221 289.342 49.2262 289.649 49.2262C289.816 49.2262 290.014 49.221 290.253 49.2054L290.795 49.1846Z" fill="#F3F3F4"/>
<path d="M300.971 58.1842C301.012 58.1842 301.033 58.2155 301.033 58.2676C301.033 58.3249 301.012 58.3509 300.971 58.3509C300.788 58.3509 300.502 58.3457 300.117 58.3301C299.71 58.304 299.429 58.2884 299.262 58.2884C299.038 58.2884 298.762 58.304 298.429 58.3301C298.122 58.3457 297.887 58.3509 297.721 58.3509C297.679 58.3509 297.658 58.3249 297.658 58.2676C297.658 58.2155 297.679 58.1842 297.721 58.1842C298.08 58.1842 298.346 58.153 298.512 58.0801C298.679 58.0124 298.762 57.8926 298.762 57.7259C298.762 57.5905 298.7 57.3717 298.575 57.0801L297.262 54.3092H293.762L292.846 56.4967C292.705 56.8301 292.637 57.0957 292.637 57.2884C292.637 57.5957 292.752 57.8249 292.992 57.9759C293.242 58.1165 293.601 58.1842 294.075 58.1842C294.127 58.1842 294.158 58.2155 294.158 58.2676C294.158 58.3249 294.127 58.3509 294.075 58.3509C293.908 58.3509 293.658 58.3457 293.325 58.3301C292.95 58.304 292.622 58.2884 292.346 58.2884C292.096 58.2884 291.804 58.304 291.471 58.3301C291.179 58.3457 290.934 58.3509 290.742 58.3509C290.689 58.3509 290.658 58.3249 290.658 58.2676C290.658 58.2155 290.689 58.1842 290.742 58.1842C291.002 58.1842 291.231 58.1374 291.429 58.0384C291.622 57.929 291.804 57.7415 291.971 57.4759C292.148 57.2155 292.335 56.8405 292.533 56.3509L295.637 49.0592C295.648 49.0332 295.679 49.0176 295.721 49.0176C295.773 49.0176 295.809 49.0332 295.825 49.0592L299.283 56.3509C299.617 57.0749 299.898 57.5592 300.137 57.8092C300.372 58.0592 300.648 58.1842 300.971 58.1842ZM293.887 54.0176H297.137L295.408 50.3926L293.887 54.0176Z" fill="#F3F3F4"/>
</svg>
